<?xml version="1.0" encoding="UTF-8" standalone="no"?>
<!-- Created with Inkscape (http://www.inkscape.org/) -->

<svg
   xmlns:dc="http://purl.org/dc/elements/1.1/"
   xmlns:cc="http://creativecommons.org/ns#"
   xmlns:rdf="http://www.w3.org/1999/02/22-rdf-syntax-ns#"
   xmlns:svg="http://www.w3.org/2000/svg"
   xmlns="http://www.w3.org/2000/svg"
   xmlns:xlink="http://www.w3.org/1999/xlink"
   xmlns:sodipodi="http://sodipodi.sourceforge.net/DTD/sodipodi-0.dtd"
   xmlns:inkscape="http://www.inkscape.org/namespaces/inkscape"
   width="128"
   height="128"
   viewBox="0 0 33.866665 33.866667"
   version="1.1"
   id="svg8"
   inkscape:version="0.92.2 (5c3e80d, 2017-08-06)"
   sodipodi:docname="category.svg">
  <defs
     id="defs2">
    <marker
       inkscape:isstock="true"
       style="overflow:visible"
       id="marker1166"
       refX="0"
       refY="0"
       orient="auto"
       inkscape:stockid="Arrow1Lstart">
      <path
         transform="matrix(0.8,0,0,0.8,10,0)"
         style="fill:#000000;fill-opacity:1;fill-rule:evenodd;stroke:#000000;stroke-width:1.00000003pt;stroke-opacity:1"
         d="M 0,0 5,-5 -12.5,0 5,5 Z"
         id="path1164"
         inkscape:connector-curvature="0" />
    </marker>
    <radialGradient
       id="radialGradient2415"
       gradientUnits="userSpaceOnUse"
       cy="4.625"
       cx="62.625"
       gradientTransform="matrix(5.7751,0,0,2.0086,-297.14,94.223)"
       r="10.625">
      <stop
         id="stop8840"
         offset="0" />
      <stop
         id="stop8842"
         style="stop-opacity:0"
         offset="1" />
    </radialGradient>
    <radialGradient
       id="radialGradient2410"
       gradientUnits="userSpaceOnUse"
       cy="3.99"
       cx="23.896"
       gradientTransform="matrix(0,6.1021,-8.0553,0,96.659,-138.26)"
       r="20.396999">
      <stop
         id="stop2778"
         style="stop-color:#8badea"
         offset="0" />
      <stop
         id="stop2780"
         style="stop-color:#6396cd"
         offset=".26238" />
      <stop
         id="stop2782"
         style="stop-color:#3b7caf"
         offset=".66094" />
      <stop
         id="stop2784"
         style="stop-color:#194c70"
         offset="1" />
    </radialGradient>
    <linearGradient
       id="linearGradient2412"
       y2="3.0816"
       gradientUnits="userSpaceOnUse"
       x2="18.379"
       gradientTransform="matrix(2.5569,0,0,2.5568,3.1524,2.1354)"
       y1="44.98"
       x1="18.379">
      <stop
         id="stop2788"
         style="stop-color:#1f4b6a"
         offset="0" />
      <stop
         id="stop2790"
         style="stop-color:#4083c2"
         offset="1" />
    </linearGradient>
    <linearGradient
       id="linearGradient2407"
       y2="5.4675999"
       gradientUnits="userSpaceOnUse"
       x2="63.396999"
       gradientTransform="matrix(5.6434,0,0,5.6429,-286.51,83.309)"
       y1="-12.489"
       x1="63.396999">
      <stop
         id="stop4875"
         style="stop-color:#fff"
         offset="0" />
      <stop
         id="stop4877"
         style="stop-color:#fff;stop-opacity:0"
         offset="1" />
    </linearGradient>
    <filter
       inkscape:collect="always"
       id="filter3241">
      <feGaussianBlur
         inkscape:collect="always"
         stdDeviation="1.0394514"
         id="feGaussianBlur3243" />
    </filter>
    <radialGradient
       inkscape:collect="always"
       xlink:href="#XMLID_7_"
       id="radialGradient2275"
       gradientUnits="userSpaceOnUse"
       gradientTransform="matrix(0.21954018,0,0,0.21954018,2.9115388,266.08194)"
       cx="102"
       cy="112.3047"
       r="139.5585" />
    <radialGradient
       id="XMLID_7_"
       cx="102"
       cy="112.3047"
       r="139.5585"
       gradientUnits="userSpaceOnUse">
      <stop
         offset="0"
         style="stop-color:#00537D"
         id="stop16" />
      <stop
         offset="0.0151"
         style="stop-color:#186389"
         id="stop18" />
      <stop
         offset="0.0558"
         style="stop-color:#558CA8"
         id="stop20" />
      <stop
         offset="0.0964"
         style="stop-color:#89AFC3"
         id="stop22" />
      <stop
         offset="0.1357"
         style="stop-color:#B3CCD8"
         id="stop24" />
      <stop
         offset="0.1737"
         style="stop-color:#D4E2E9"
         id="stop26" />
      <stop
         offset="0.2099"
         style="stop-color:#ECF2F5"
         id="stop28" />
      <stop
         offset="0.2435"
         style="stop-color:#FAFCFD"
         id="stop30" />
      <stop
         offset="0.2722"
         style="stop-color:#FFFFFF"
         id="stop32" />
    </radialGradient>
    <radialGradient
       inkscape:collect="always"
       xlink:href="#XMLID_8_"
       id="radialGradient2272"
       gradientUnits="userSpaceOnUse"
       gradientTransform="matrix(0.21486911,0,0,0.21554854,3.2104868,266.3374)"
       cx="102"
       cy="112.3047"
       r="139.55859" />
    <radialGradient
       id="XMLID_8_"
       cx="102"
       cy="112.3047"
       r="139.55859"
       gradientUnits="userSpaceOnUse">
      <stop
         offset="0"
         style="stop-color:#535557"
         id="stop37" />
      <stop
         offset="0.11366145"
         style="stop-color:#898A8C"
         id="stop41" />
      <stop
         offset="0.20296688"
         style="stop-color:#ECECEC"
         id="stop47" />
      <stop
         offset="0.2363"
         style="stop-color:#FAFAFA"
         id="stop49" />
      <stop
         offset="0.2722"
         style="stop-color:#FFFFFF"
         id="stop51" />
      <stop
         offset="0.5313"
         style="stop-color:#FAFAFA"
         id="stop53" />
      <stop
         offset="0.8449"
         style="stop-color:#EBECEC"
         id="stop55" />
      <stop
         offset="1"
         style="stop-color:#E1E2E3"
         id="stop57" />
    </radialGradient>
    <linearGradient
       inkscape:collect="always"
       xlink:href="#XMLID_9_"
       id="linearGradient2291"
       gradientUnits="userSpaceOnUse"
       x1="94.343803"
       y1="102.3447"
       x2="86.535599"
       y2="94.536598" />
    <linearGradient
       id="XMLID_9_"
       gradientUnits="userSpaceOnUse"
       x1="94.343803"
       y1="102.3447"
       x2="86.535599"
       y2="94.536598">
      <stop
         offset="0"
         style="stop-color:#FFFFFF"
         id="stop62" />
      <stop
         offset="1"
         style="stop-color:#555753"
         id="stop64" />
    </linearGradient>
    <linearGradient
       inkscape:collect="always"
       xlink:href="#XMLID_10_"
       id="linearGradient2293"
       gradientUnits="userSpaceOnUse"
       x1="95"
       y1="103"
       x2="86.586502"
       y2="94.586502" />
    <linearGradient
       id="XMLID_10_"
       gradientUnits="userSpaceOnUse"
       x1="95"
       y1="103"
       x2="86.586502"
       y2="94.586502">
      <stop
         offset="0"
         style="stop-color:#FFFFFF"
         id="stop69" />
      <stop
         offset="1"
         style="stop-color:#555753"
         id="stop71" />
    </linearGradient>
    <linearGradient
       inkscape:collect="always"
       xlink:href="#XMLID_11_"
       id="linearGradient2295"
       gradientUnits="userSpaceOnUse"
       x1="95"
       y1="103"
       x2="87.292999"
       y2="95.292999" />
    <linearGradient
       id="XMLID_11_"
       gradientUnits="userSpaceOnUse"
       x1="95"
       y1="103"
       x2="87.292999"
       y2="95.292999">
      <stop
         offset="0"
         style="stop-color:#FFFFFF"
         id="stop76" />
      <stop
         offset="1"
         style="stop-color:#393B38"
         id="stop78" />
    </linearGradient>
    <linearGradient
       inkscape:collect="always"
       xlink:href="#XMLID_12_"
       id="linearGradient2297"
       gradientUnits="userSpaceOnUse"
       x1="96"
       y1="104"
       x2="88.000198"
       y2="96.000198" />
    <linearGradient
       id="XMLID_12_"
       gradientUnits="userSpaceOnUse"
       x1="96"
       y1="104"
       x2="88.000198"
       y2="96.000198">
      <stop
         offset="0"
         style="stop-color:#888A85"
         id="stop83" />
      <stop
         offset="0.0072"
         style="stop-color:#8C8E89"
         id="stop85" />
      <stop
         offset="0.0673"
         style="stop-color:#ABACA9"
         id="stop87" />
      <stop
         offset="0.1347"
         style="stop-color:#C5C6C4"
         id="stop89" />
      <stop
         offset="0.2115"
         style="stop-color:#DBDBDA"
         id="stop91" />
      <stop
         offset="0.3012"
         style="stop-color:#EBEBEB"
         id="stop93" />
      <stop
         offset="0.4122"
         style="stop-color:#F7F7F6"
         id="stop95" />
      <stop
         offset="0.5679"
         style="stop-color:#FDFDFD"
         id="stop97" />
      <stop
         offset="1"
         style="stop-color:#FFFFFF"
         id="stop99" />
    </linearGradient>
    <linearGradient
       gradientTransform="rotate(90,-90.0007,50.0022)"
       y2="-383.9971"
       x2="-12.0029"
       y1="-383.9971"
       x1="-84.002403"
       gradientUnits="userSpaceOnUse"
       id="linearGradient5958">
      <stop
         id="stop5960"
         style="stop-color:#008c00;stop-opacity:1"
         offset="0" />
      <stop
         id="stop5962"
         style="stop-color:#00bf00;stop-opacity:1"
         offset="1" />
    </linearGradient>
    <linearGradient
       gradientTransform="rotate(90,-90.0007,50.0022)"
       y2="-383.9971"
       x2="-12.0029"
       y1="-383.9971"
       x1="-84.002403"
       gradientUnits="userSpaceOnUse"
       id="linearGradient4770">
      <stop
         id="stop4772"
         style="stop-color:#e5ff00;stop-opacity:1"
         offset="0" />
      <stop
         id="stop4774"
         style="stop-color:#bff500;stop-opacity:0;"
         offset="1" />
    </linearGradient>
    <linearGradient
       id="linearGradient4296">
      <stop
         id="stop4298"
         offset="0"
         style="stop-color:#00ff00;stop-opacity:1" />
      <stop
         id="stop4300"
         offset="1"
         style="stop-color:#006500;stop-opacity:1" />
    </linearGradient>
    <clipPath
       clipPathUnits="userSpaceOnUse"
       id="clipPath5163">
      <circle
         style="fill:url(#linearGradient5167);fill-opacity:1"
         r="36"
         cx="343.99899"
         cy="92"
         id="circle5165" />
    </clipPath>
    <linearGradient
       gradientTransform="rotate(90,-90.0007,50.0022)"
       y2="-383.9975"
       x2="-23.516129"
       y1="-383.9971"
       x1="-84.002403"
       gradientUnits="userSpaceOnUse"
       id="linearGradient3711">
      <stop
         id="stop3713"
         style="stop-color:white;stop-opacity:1;"
         offset="0" />
      <stop
         id="stop3715"
         style="stop-color:white;stop-opacity:0;"
         offset="1" />
    </linearGradient>
    <linearGradient
       id="linearGradient6740">
      <stop
         style="stop-color:#004d00;stop-opacity:0;"
         offset="0"
         id="stop6742" />
      <stop
         id="stop6748"
         offset="0.5"
         style="stop-color:#004d00;stop-opacity:1;" />
      <stop
         style="stop-color:#004d00;stop-opacity:0;"
         offset="1"
         id="stop6744" />
    </linearGradient>
  </defs>
  <sodipodi:namedview
     id="base"
     pagecolor="#ffffff"
     bordercolor="#666666"
     borderopacity="1.0"
     inkscape:pageopacity="0.0"
     inkscape:pageshadow="2"
     inkscape:zoom="4"
     inkscape:cx="29.570195"
     inkscape:cy="109.72696"
     inkscape:document-units="mm"
     inkscape:current-layer="g2474"
     showgrid="false"
     units="px"
     inkscape:window-width="1920"
     inkscape:window-height="1135"
     inkscape:window-x="0"
     inkscape:window-y="0"
     inkscape:window-maximized="1"
     showguides="true" />
  <metadata
     id="metadata5">
    <rdf:RDF>
      <cc:Work
         rdf:about="">
        <dc:format>image/svg+xml</dc:format>
        <dc:type
           rdf:resource="http://purl.org/dc/dcmitype/StillImage" />
        <dc:title></dc:title>
      </cc:Work>
    </rdf:RDF>
  </metadata>
  <g
     inkscape:label="Layer 1"
     inkscape:groupmode="layer"
     id="layer1"
     transform="translate(0,-263.13332)">
    <g
       id="g2474">
      <g
         id="g2490"
         transform="translate(-0.02877677,-0.06583625)">
        <path
           inkscape:connector-curvature="0"
           id="path6594"
           d="m 23,9 0.04082,112 H 84.172 c 0.53,0 1.039,-0.211 1.414,-0.586 L 118.414,87.586 C 118.789,87.211 119,86.702 119,86.172 V 9 Z"
           style="opacity:0.5;fill:#000000;fill-opacity:1;filter:url(#filter3241)"
           transform="matrix(0.22868769,0,0,0.2273809,0.72528368,265.35273)"
           sodipodi:nodetypes="cccccccc" />
        <path
           inkscape:connector-curvature="0"
           style="fill:url(#radialGradient2275);stroke-width:0.21954018"
           d="m 6.4241808,267.83826 v 24.5885 H 19.853894 c 0.116357,0 0.228102,-0.0463 0.31043,-0.12865 l 7.207065,-7.20706 c 0.08233,-0.0823 0.12865,-0.19408 0.12865,-0.31043 v -16.94236 z"
           id="path34"
           sodipodi:nodetypes="cccccccc" />
        <path
           inkscape:connector-curvature="0"
           style="fill:url(#radialGradient2272);fill-opacity:1;stroke-width:0.21954018"
           d="m 7.0781308,268.27734 c -0.118393,0 -0.214869,0.0968 -0.214869,0.21555 v 23.27924 c 0,0.11899 0.09648,0.21555 0.214869,0.21555 H 19.792367 c 0.05651,0 0.111947,-0.0229 0.151912,-0.0632 l 7.053722,-7.07603 c 0.04018,-0.0403 0.06296,-0.0957 0.06296,-0.15239 v -16.20322 c 0,-0.11877 -0.09626,-0.21555 -0.214869,-0.21555 z"
           id="path59" />
        <g
           id="g1973"
           transform="matrix(0.21954018,0,0,0.21954018,2.9115388,266.08194)">
          <path
             inkscape:connector-curvature="0"
             style="opacity:0.1;fill:url(#linearGradient2291)"
             id="path66"
             d="M 111.414,86.586 C 111.664,86.336 93.035,93 88,93 c -1.654,0 -3,1.346 -3,3 0,5.035 -6.664,23.664 -6.414,23.414 z" />
          <path
             inkscape:connector-curvature="0"
             style="opacity:0.1;fill:url(#linearGradient2293)"
             id="path73"
             d="M 111.414,86.586 C 111.789,86.211 97.444,94 88,94 c -1.103,0 -2,0.897 -2,2 0,9.444 -7.789,23.789 -7.414,23.414 z" />
          <path
             inkscape:connector-curvature="0"
             style="opacity:0.1;fill:url(#linearGradient2295)"
             id="path80"
             d="M 111.414,86.586 C 111.653,86.347 97.807,95 88,95 c -0.553,0 -1,0.447 -1,1 0,9.807 -8.653,23.653 -8.414,23.414 z" />
          <path
             inkscape:connector-curvature="0"
             style="fill:url(#linearGradient2297)"
             id="path101"
             d="m 78.586,119.414 c 0,0 11.914,-9.914 17.414,-15.414 5.5,-5.5 15.414,-17.414 15.414,-17.414 0,0 -13.164,9.414 -23.414,9.414 0,10.25 -9.414,23.414 -9.414,23.414 z" />
        </g>
        <g
           transform="matrix(0.13386774,0,0,0.13386774,8.2961867,270.97466)"
           id="g854">
          <path
             inkscape:connector-curvature="0"
             d="m 125.88,103.51 c 0,11.786 -27.472,21.341 -61.36,21.341 -33.888,0 -61.36,-9.5548 -61.36,-21.341 0,-11.7862 27.472,-21.341 61.36,-21.341 33.888,0 61.36,9.5548 61.36,21.341 z"
             style="opacity:0.5;fill:url(#radialGradient2415);fill-rule:evenodd"
             id="path8836" />
          <path
             inkscape:connector-curvature="0"
             d="m 64.519,11.484 c -28.702,0 -52.018,23.315 -52.018,52.014 0,28.7 23.316,52.014 52.018,52.014 28.702,0 52.018,-23.315 52.018,-52.014 0,-28.7 -23.316,-52.014 -52.018,-52.014 z"
             style="fill:url(#radialGradient2410);stroke:url(#linearGradient2412);stroke-width:0.99914998;stroke-linecap:round;stroke-linejoin:round"
             id="path2555" />
          <path
             inkscape:connector-curvature="0"
             d="M 115.5,63.496 C 115.5,90.753 93.2,114.74 64.52,114.5 35.007,114.25 13.846,90.751 13.5,63.496 13.144,35.409 36.787,12.381 64.52,12.5 91.775,12.617 115.5,34.46 115.5,63.496 Z"
             style="opacity:0.4;fill:none;stroke:url(#linearGradient2407);stroke-width:0.99914998"
             id="path8655" />
          <path
             inkscape:connector-curvature="0"
             d="M 66.948,78.372 C 66.772,72.08 68.181,65.971 74.127,61.644 80.406,56.751 86.454,50.629 85.815,43.412 85.676,36.452 77.566,30.998 68.828,30.213 c -9.8288,-1.3615 -21.722,2.0054 -25.015,9.6807 -1.6704,3.733 -0.12138,10.431 5.4845,10.431 3.2789,0 4.7849,-2.1179 5.0323,-4.0554 0.1872,-1.4659 -0.41467,-2.775 -0.77011,-3.9858 -0.405,-1.3797 1.3239,-4.0537 3.207,-5.1431 1.5735,-0.9104 3.2198,-1.2157 3.4624,-1.274 5.6508,-1.358 11.284,1.6416 13.634,5.2924 2.3502,3.6508 -0.23666,8.7881 -3.956,14.173 -3.7193,5.3851 -7.7109,11.902 -7.6949,18.398 0,2.4733 -0.22039,3.3135 -0.06379,4.3141 0.1251,0.79947 2.7725,0.70285 4.7999,0.32788 z M 64.369,87 c -5.4031,-0.29328 -9.1428,5.6727 -5.8969,9.575 2.8988,4.3085 11.026,3.2449 12.419,-1.634 1.449,-3.794 -2.037,-8.004 -6.522,-7.941 h -2e-6 z"
             style="opacity:0.2"
             id="path9053" />
          <path
             inkscape:connector-curvature="0"
             d="M 66.948,79.44 C 66.772,73.148 68.181,67.039 74.127,62.712 80.406,57.819 86.454,51.697 85.815,44.48 85.676,37.52 77.566,32.066 68.828,31.281 c -9.8288,-1.3615 -21.722,2.0054 -25.015,9.6807 -1.6704,3.733 -0.12138,10.431 5.4845,10.431 3.2789,0 4.7849,-2.1179 5.0323,-4.0554 0.1872,-1.4659 -0.41467,-2.775 -0.77011,-3.9858 -0.405,-1.3797 1.3239,-4.0537 3.207,-5.1431 1.5735,-0.9104 3.2198,-1.2157 3.4624,-1.274 5.6508,-1.358 11.284,1.6416 13.634,5.2924 2.3502,3.6508 -0.23666,9.1884 -3.956,14.573 -3.7193,5.3851 -7.7109,11.501 -7.6949,17.998 0,2.4733 -0.22039,3.3135 -0.06379,4.3141 0.1251,0.79948 2.7725,0.70285 4.7999,0.32788 z M 64.369,88 c -5.403,-0.293 -9.143,5.741 -5.897,9.643 2.899,4.307 11.026,3.247 12.419,-1.634 C 72.34,92.215 68.854,87.937 64.369,88 h -2e-6 z"
             style="fill:#ffffff"
             id="path3298" />
        </g>
      </g>
    </g>
  </g>
</svg>
